<?xml version="1.0" encoding="UTF-8" standalone="no"?>
<svg width="33px" height="53px" viewBox="0 0 33 53" version="1.1" xmlns="http://www.w3.org/2000/svg" xmlns:xlink="http://www.w3.org/1999/xlink" xmlns:sketch="http://www.bohemiancoding.com/sketch/ns">
    <!-- Generator: Sketch 3.4.1 (15681) - http://www.bohemiancoding.com/sketch -->
    <title>mic</title>
    <desc>Created with Sketch.</desc>
    <defs></defs>
    <g id="Elements" stroke="none" stroke-width="1" fill="none" fill-rule="evenodd" sketch:type="MSPage">
        <g id="iPhone-5/5S/5C" sketch:type="MSArtboardGroup" transform="translate(-115.000000, -392.000000)" stroke-width="2" stroke="#FFFFFF">
            <g id="mic" sketch:type="MSLayerGroup" transform="translate(90.000000, 374.000000)">
                <g id="launch" sketch:type="MSShapeGroup">
                    <g id="mic" transform="translate(30.000000, 21.000000)">
                        <path d="M11.4285714,42.0588235 L11.4285714,36.8823529" id="Line" stroke-linecap="square"></path>
                        <path d="M4.57142857,23.2941176 L4.57142857,7.76470588 C4.57142857,3.47637724 7.641476,0 11.4285714,0 C15.2156669,0 18.2857143,3.47637724 18.2857143,7.76470588 L18.2857143,23.2941176 C18.2857143,27.5824463 15.2156669,31.0588235 11.4285714,31.0588235 C7.641476,31.0588235 4.57142857,27.5824463 4.57142857,23.2941176 Z" id="Oval-20"></path>
                        <path d="M22.5594559,19.386894 L22.5594559,23.5827036 C22.5594559,30.369724 17.5759892,35.8716911 11.4285714,35.8716911 C5.28115368,35.8716911 0.297686955,30.369724 0.297686955,23.5827036 L0.297686955,19.2585387" id="Oval-20"></path>
                        <path d="M1.71428571,42.7058824 L22.2857143,42.7058824" id="Line" stroke-linecap="square"></path>
                    </g>
                </g>
            </g>
        </g>
    </g>
</svg>